<svg xmlns="http://www.w3.org/2000/svg" width="64" height="64" viewBox="0 0 64 64">
  <g id="descarga-icono" transform="translate(-183 -77)">
    <rect id="Rectángulo_2020" data-name="Rectángulo 2020" width="64" height="64" rx="32" transform="translate(183 77)" fill="#333"/>
    <g id="download" transform="translate(204 89)">
      <g id="Grupo_265" data-name="Grupo 265">
        <g id="Grupo_264" data-name="Grupo 264">
          <path id="Trazado_2329" data-name="Trazado 2329" d="M95.361,27.1h0c.032.032.065.062.1.09.016.013.033.024.049.037s.039.03.059.043.04.024.06.036.036.023.055.033.042.02.063.03.039.019.059.028l.062.023c.022.008.043.016.065.023l.062.016c.023.006.045.012.068.017s.049.008.073.011l.06.009a1.384,1.384,0,0,0,.271,0l.06-.009c.024,0,.049-.006.073-.011s.045-.011.068-.017l.062-.016c.022-.007.044-.015.065-.023l.062-.023c.02-.008.04-.018.059-.028s.042-.019.063-.03.037-.022.055-.033.04-.023.06-.036.039-.029.059-.043.033-.024.049-.037c.035-.029.068-.059.1-.09h0l9.625-9.625a1.375,1.375,0,1,0-1.945-1.945l-7.278,7.278V1.375a1.375,1.375,0,1,0-2.75,0v21.43l-7.278-7.278a1.375,1.375,0,0,0-1.945,1.945Z" transform="translate(-85.334)" fill="#fff"/>
          <path id="Trazado_2330" data-name="Trazado 2330" d="M105.959,469.333H86.709a1.375,1.375,0,0,0,0,2.75h19.25a1.375,1.375,0,0,0,0-2.75Z" transform="translate(-85.334 -439.083)" fill="#fff"/>
        </g>
      </g>
    </g>
  </g>
</svg>
