<svg id="icono-app-store" xmlns="http://www.w3.org/2000/svg" width="148.33" height="43.95" viewBox="0 0 148.33 43.95">
  <g id="icono-app-store-2" data-name="icono-app-store" transform="translate(0 0)">
    <g id="Grupo_248" data-name="Grupo 248">
      <path id="Trazado_2250" data-name="Trazado 2250" d="M150.691,14.133H25.992c-.455,0-.9,0-1.357,0-.38,0-.755.008-1.139.014a18.385,18.385,0,0,0-2.484.193,9.058,9.058,0,0,0-2.356.69,8.042,8.042,0,0,0-2.006,1.294,6.983,6.983,0,0,0-1.46,1.781,6.673,6.673,0,0,0-.776,2.092,12.811,12.811,0,0,0-.222,2.2c-.012.337-.012.674-.019,1.011v25.4c.007.342.007.673.019,1.014a12.777,12.777,0,0,0,.222,2.2,6.645,6.645,0,0,0,.776,2.092,6.9,6.9,0,0,0,1.46,1.775,7.831,7.831,0,0,0,2.006,1.294,9.066,9.066,0,0,0,2.356.694,18.9,18.9,0,0,0,2.484.193c.384.008.759.012,1.139.012.454,0,.9,0,1.357,0h124.7c.445,0,.9,0,1.343,0,.377,0,.764,0,1.143-.012a18.638,18.638,0,0,0,2.479-.193,9.208,9.208,0,0,0,2.365-.694,7.831,7.831,0,0,0,2.006-1.294,7.14,7.14,0,0,0,1.463-1.775,6.669,6.669,0,0,0,.767-2.092,12.964,12.964,0,0,0,.23-2.2c.005-.342.005-.673.005-1.014.01-.4.01-.8.01-1.2v-23c0-.4,0-.8-.01-1.2,0-.337,0-.674-.005-1.011a13,13,0,0,0-.23-2.2,6.7,6.7,0,0,0-.767-2.092,7.224,7.224,0,0,0-1.463-1.781,8.042,8.042,0,0,0-2.006-1.294,9.2,9.2,0,0,0-2.365-.69,18.134,18.134,0,0,0-2.479-.193c-.379-.006-.766-.012-1.143-.014-.445,0-.9,0-1.343,0Z" transform="translate(-14.173 -14.133)" fill="#afafae"/>
      <path id="Trazado_2251" data-name="Trazado 2251" d="M24.2,56.781c-.379,0-.748,0-1.123-.011a17.582,17.582,0,0,1-2.32-.179,8.029,8.029,0,0,1-2.058-.6,6.772,6.772,0,0,1-1.735-1.118,5.952,5.952,0,0,1-1.267-1.534,5.827,5.827,0,0,1-.674-1.821,12.166,12.166,0,0,1-.206-2.059c-.007-.232-.017-1-.017-1V23.072s.01-.759.017-.983a12.013,12.013,0,0,1,.206-2.056,5.84,5.84,0,0,1,.674-1.826,6.03,6.03,0,0,1,1.26-1.537,6.97,6.97,0,0,1,1.742-1.122,7.947,7.947,0,0,1,2.053-.6,17.663,17.663,0,0,1,2.329-.179l1.12-.014H151.8l1.134.014a17.328,17.328,0,0,1,2.308.179,7.983,7.983,0,0,1,2.074.6,6.838,6.838,0,0,1,1.728,1.116,6.192,6.192,0,0,1,1.272,1.543,5.831,5.831,0,0,1,.664,1.81,12.758,12.758,0,0,1,.217,2.075c0,.311,0,.645,0,.977.009.413.009.8.009,1.2v23c0,.4,0,.789-.009,1.181,0,.357,0,.685-.005,1.022a12.363,12.363,0,0,1-.213,2.036,5.8,5.8,0,0,1-.669,1.835,6.142,6.142,0,0,1-1.261,1.523,6.741,6.741,0,0,1-1.738,1.122,7.882,7.882,0,0,1-2.07.6,17.385,17.385,0,0,1-2.32.179c-.365.008-.744.011-1.115.011l-1.345,0Z" transform="translate(-13.834 -13.793)" fill="#010000"/>
    </g>
  </g>
  <g id="Grupo_251" data-name="Grupo 251" transform="translate(14.049 8.035)">
    <g id="Grupo_250" data-name="Grupo 250" transform="translate(0)">
      <path id="Trazado_2252" data-name="Trazado 2252" d="M37.518,31.016a5.439,5.439,0,0,1,2.59-4.563,5.566,5.566,0,0,0-4.385-2.37c-1.846-.193-3.635,1.1-4.575,1.1-.959,0-2.406-1.085-3.964-1.053a5.841,5.841,0,0,0-4.915,3c-2.124,3.678-.54,9.085,1.5,12.06,1.017,1.456,2.208,3.083,3.765,3.024,1.524-.062,2.093-.971,3.933-.971,1.823,0,2.356.971,3.946.935,1.636-.026,2.665-1.463,3.649-2.933a12.034,12.034,0,0,0,1.668-3.4A5.251,5.251,0,0,1,37.518,31.016Z" transform="translate(-21.26 -18.291)" fill="#fff"/>
      <path id="Trazado_2253" data-name="Trazado 2253" d="M31.1,24.166a5.351,5.351,0,0,0,1.225-3.836A5.446,5.446,0,0,0,28.8,22.154a5.089,5.089,0,0,0-1.257,3.692A4.5,4.5,0,0,0,31.1,24.166Z" transform="translate(-17.843 -20.33)" fill="#fff"/>
    </g>
  </g>
  <g id="Grupo_252" data-name="Grupo 252" transform="translate(46.946 19.636)">
    <path id="Trazado_2254" data-name="Trazado 2254" d="M47.291,36.937h-5.2l-1.249,3.687h-2.2L43.565,26.98h2.288l4.927,13.644H48.539Zm-4.662-1.7h4.122L44.72,29.25h-.057Z" transform="translate(-38.639 -26.753)" fill="#fff"/>
    <path id="Trazado_2255" data-name="Trazado 2255" d="M56.681,34.383c0,3.091-1.654,5.077-4.151,5.077A3.375,3.375,0,0,1,49.4,37.719h-.048v4.927H47.312V29.408h1.976v1.654h.037A3.532,3.532,0,0,1,52.493,29.3C55.018,29.3,56.681,31.3,56.681,34.383Zm-2.1,0c0-2.015-1.041-3.338-2.628-3.338-1.56,0-2.61,1.351-2.61,3.338,0,2,1.05,3.346,2.61,3.346C53.543,37.729,54.583,36.415,54.583,34.383Z" transform="translate(-33.903 -25.484)" fill="#fff"/>
    <path id="Trazado_2256" data-name="Trazado 2256" d="M63.764,34.383c0,3.091-1.654,5.077-4.151,5.077a3.372,3.372,0,0,1-3.129-1.741h-.048v4.927H54.393V29.408H56.37v1.654h.037A3.53,3.53,0,0,1,59.576,29.3C62.1,29.3,63.764,31.3,63.764,34.383Zm-2.1,0c0-2.015-1.042-3.338-2.63-3.338-1.56,0-2.608,1.351-2.608,3.338,0,2,1.048,3.346,2.608,3.346C60.624,37.729,61.666,36.415,61.666,34.383Z" transform="translate(-30.036 -25.484)" fill="#fff"/>
    <path id="Trazado_2257" data-name="Trazado 2257" d="M65.872,36.9c.152,1.354,1.466,2.242,3.262,2.242,1.721,0,2.959-.887,2.959-2.107,0-1.059-.747-1.695-2.516-2.129l-1.767-.425c-2.506-.606-3.669-1.778-3.669-3.678,0-2.355,2.052-3.972,4.965-3.972,2.883,0,4.859,1.617,4.926,3.972H71.972c-.124-1.362-1.249-2.185-2.894-2.185s-2.771.832-2.771,2.042c0,.965.719,1.532,2.478,1.967l1.5.37c2.8.662,3.963,1.787,3.963,3.782,0,2.553-2.033,4.151-5.268,4.151-3.026,0-5.068-1.56-5.2-4.029Z" transform="translate(-24.908 -26.833)" fill="#fff"/>
    <path id="Trazado_2258" data-name="Trazado 2258" d="M74.638,27.849V30.2h1.892v1.617H74.638V37.3c0,.852.379,1.249,1.211,1.249a6.306,6.306,0,0,0,.673-.048v1.608a5.593,5.593,0,0,1-1.135.094c-2.015,0-2.8-.756-2.8-2.686v-5.7H71.141V30.2h1.446V27.849Z" transform="translate(-20.889 -26.278)" fill="#fff"/>
    <path id="Trazado_2259" data-name="Trazado 2259" d="M75.335,34.39c0-3.131,1.845-5.1,4.719-5.1s4.719,1.967,4.719,5.1-1.824,5.1-4.719,5.1S75.335,37.528,75.335,34.39Zm7.356,0c0-2.148-.983-3.415-2.638-3.415s-2.638,1.277-2.638,3.415c0,2.155.983,3.412,2.638,3.412S82.691,36.545,82.691,34.39Z" transform="translate(-18.599 -25.49)" fill="#fff"/>
    <path id="Trazado_2260" data-name="Trazado 2260" d="M82.528,29.408h1.948V31.1h.046a2.372,2.372,0,0,1,2.393-1.8,3.178,3.178,0,0,1,.7.076v1.909a2.9,2.9,0,0,0-.917-.122,2.057,2.057,0,0,0-2.127,2.288v5.9H82.528Z" transform="translate(-14.671 -25.484)" fill="#fff"/>
    <path id="Trazado_2261" data-name="Trazado 2261" d="M95.077,36.441c-.274,1.806-2.033,3.044-4.283,3.044-2.894,0-4.691-1.939-4.691-5.05s1.806-5.144,4.6-5.144c2.752,0,4.484,1.891,4.484,4.907v.7H88.164v.124a2.591,2.591,0,0,0,2.676,2.817,2.251,2.251,0,0,0,2.3-1.4Zm-6.9-2.97h4.972a2.391,2.391,0,0,0-2.44-2.525A2.518,2.518,0,0,0,88.175,33.471Z" transform="translate(-12.718 -25.49)" fill="#fff"/>
  </g>
  <g id="Grupo_255" data-name="Grupo 255" transform="translate(48.078 8.811)">
    <path id="Trazado_2262" data-name="Trazado 2262" d="M39.35,23.674c0-2.126,1.13-3.439,2.953-3.439a2.618,2.618,0,0,1,2.726,2.271H44.016A1.687,1.687,0,0,0,42.3,21.184c-1.178,0-1.913.959-1.913,2.489s.734,2.486,1.917,2.486a1.645,1.645,0,0,0,1.708-1.209h1.013a2.557,2.557,0,0,1-2.721,2.158C40.485,27.109,39.35,25.8,39.35,23.674Z" transform="translate(-39.35 -19.612)" fill="#fff"/>
    <path id="Trazado_2263" data-name="Trazado 2263" d="M43.744,23.884a2.344,2.344,0,1,1,4.666,0,2.344,2.344,0,1,1-4.666,0Zm3.661,0c0-1.073-.481-1.7-1.327-1.7s-1.327.626-1.327,1.7.478,1.7,1.327,1.7S47.405,24.96,47.405,23.884Z" transform="translate(-36.95 -19.022)" fill="#fff"/>
    <path id="Trazado_2264" data-name="Trazado 2264" d="M47.609,21.412h.94V22.2h.073a1.483,1.483,0,0,1,1.477-.883,1.61,1.61,0,0,1,1.713,1.841v3.2h-.977V23.4c0-.795-.345-1.191-1.067-1.191a1.135,1.135,0,0,0-1.181,1.254v2.894h-.977Z" transform="translate(-34.84 -19.022)" fill="#fff"/>
    <path id="Trazado_2265" data-name="Trazado 2265" d="M53.2,21.316c1.113,0,1.841.518,1.936,1.39H54.2c-.091-.363-.445-.594-1-.594s-.959.258-.959.645c0,.3.25.481.787.6l.821.19c.942.218,1.382.623,1.382,1.35,0,.931-.867,1.554-2.049,1.554s-1.945-.532-2.032-1.409h.977a1,1,0,0,0,1.076.617c.609,0,1.041-.272,1.041-.668,0-.294-.232-.485-.727-.6l-.863-.2c-.942-.223-1.378-.645-1.378-1.381C51.275,21.934,52.079,21.316,53.2,21.316Z" transform="translate(-32.907 -19.022)" fill="#fff"/>
    <path id="Trazado_2266" data-name="Trazado 2266" d="M54.585,21.4l1.139-1.563H56.87L55.593,21.4Zm.1.827h.972V27.17h-.972Z" transform="translate(-31.03 -19.832)" fill="#fff"/>
    <path id="Trazado_2267" data-name="Trazado 2267" d="M56.331,26.849h1c.082.36.5.592,1.155.592.813,0,1.294-.387,1.294-1.041v-.949h-.073a1.664,1.664,0,0,1-1.526.83c-1.263,0-2.044-.977-2.044-2.458,0-1.507.789-2.5,2.053-2.5a1.716,1.716,0,0,1,1.554.872h.077v-.79h.935V26.4c0,1.13-.886,1.849-2.285,1.849C57.234,28.245,56.434,27.69,56.331,26.849Zm3.466-3.03c0-.985-.509-1.617-1.34-1.617s-1.313.632-1.313,1.617.472,1.617,1.313,1.617S59.8,24.81,59.8,23.819Z" transform="translate(-30.183 -19.017)" fill="#fff"/>
    <path id="Trazado_2268" data-name="Trazado 2268" d="M64.318,26.326h-.942V25.54H63.3a1.486,1.486,0,0,1-1.5.881A1.607,1.607,0,0,1,60.1,24.591V21.378h.979v2.958c0,.8.322,1.181,1.041,1.181a1.123,1.123,0,0,0,1.221-1.245V21.378h.977Z" transform="translate(-28.018 -18.988)" fill="#fff"/>
    <path id="Trazado_2269" data-name="Trazado 2269" d="M68.1,25.024a2.008,2.008,0,0,1-2.143,1.432A2.247,2.247,0,0,1,63.676,23.9a2.282,2.282,0,0,1,2.281-2.585c1.376,0,2.206.942,2.206,2.5v.34H64.67v.054a1.308,1.308,0,0,0,1.317,1.418,1.185,1.185,0,0,0,1.177-.6ZM64.67,23.43h2.5a1.193,1.193,0,0,0-1.218-1.282A1.264,1.264,0,0,0,64.67,23.43Z" transform="translate(-26.065 -19.022)" fill="#fff"/>
    <path id="Trazado_2270" data-name="Trazado 2270" d="M67.456,20.129h.976v6.879h-.976Z" transform="translate(-24.001 -19.67)" fill="#fff"/>
    <path id="Trazado_2271" data-name="Trazado 2271" d="M68.965,23.884a2.344,2.344,0,1,1,4.666,0,2.344,2.344,0,1,1-4.666,0Zm3.663,0c0-1.073-.482-1.7-1.328-1.7s-1.325.626-1.325,1.7.476,1.7,1.325,1.7S72.628,24.96,72.628,23.884Z" transform="translate(-23.177 -19.022)" fill="#fff"/>
    <path id="Trazado_2272" data-name="Trazado 2272" d="M78.838,25.024a2.01,2.01,0,0,1-2.144,1.432A2.248,2.248,0,0,1,74.408,23.9a2.283,2.283,0,0,1,2.282-2.585c1.376,0,2.206.942,2.206,2.5v.34H75.4v.054a1.308,1.308,0,0,0,1.319,1.418,1.185,1.185,0,0,0,1.177-.6ZM75.4,23.43h2.5a1.194,1.194,0,0,0-1.218-1.282A1.266,1.266,0,0,0,75.4,23.43Z" transform="translate(-20.204 -19.022)" fill="#fff"/>
    <path id="Trazado_2273" data-name="Trazado 2273" d="M78.159,21.412h.94V22.2h.073a1.483,1.483,0,0,1,1.477-.883,1.61,1.61,0,0,1,1.713,1.841v3.2h-.977V23.4c0-.795-.345-1.191-1.067-1.191a1.135,1.135,0,0,0-1.181,1.254v2.894h-.977Z" transform="translate(-18.156 -19.022)" fill="#fff"/>
    <path id="Trazado_2274" data-name="Trazado 2274" d="M87.861,25.024a2.011,2.011,0,0,1-2.144,1.432A2.247,2.247,0,0,1,83.431,23.9a2.282,2.282,0,0,1,2.281-2.585c1.378,0,2.208.942,2.208,2.5v.34H84.425v.054a1.308,1.308,0,0,0,1.317,1.418,1.187,1.187,0,0,0,1.178-.6ZM84.425,23.43h2.5a1.192,1.192,0,0,0-1.217-1.282A1.266,1.266,0,0,0,84.425,23.43Z" transform="translate(-15.277 -19.022)" fill="#fff"/>
    <path id="Trazado_2275" data-name="Trazado 2275" d="M87.211,20.129h.977v6.879h-.977Z" transform="translate(-13.213 -19.67)" fill="#fff"/>
  </g>
</svg>
