<svg id="icono-google-play" xmlns="http://www.w3.org/2000/svg" xmlns:xlink="http://www.w3.org/1999/xlink" width="148.33" height="43.95" viewBox="0 0 148.33 43.95">
  <defs>
    <linearGradient id="linear-gradient" x1="0.915" y1="6.614" x2="-0.383" y2="5.945" gradientUnits="objectBoundingBox">
      <stop offset="0" stop-color="#00a0ff"/>
      <stop offset="0.007" stop-color="#00a1ff"/>
      <stop offset="0.26" stop-color="#00beff"/>
      <stop offset="0.512" stop-color="#00d2ff"/>
      <stop offset="0.76" stop-color="#00dfff"/>
      <stop offset="1" stop-color="#00e3ff"/>
    </linearGradient>
    <linearGradient id="linear-gradient-2" x1="1.076" y1="17.098" x2="-1.305" y2="17.098" gradientUnits="objectBoundingBox">
      <stop offset="0" stop-color="#ffe000"/>
      <stop offset="0.409" stop-color="#ffbd00"/>
      <stop offset="0.775" stop-color="orange"/>
      <stop offset="1" stop-color="#ff9c00"/>
    </linearGradient>
    <linearGradient id="linear-gradient-3" x1="0.862" y1="10.863" x2="-0.501" y2="9.093" gradientUnits="objectBoundingBox">
      <stop offset="0" stop-color="#ff3a44"/>
      <stop offset="1" stop-color="#c31162"/>
    </linearGradient>
    <linearGradient id="linear-gradient-4" x1="-0.188" y1="13.583" x2="0.421" y2="12.793" gradientUnits="objectBoundingBox">
      <stop offset="0" stop-color="#32a071"/>
      <stop offset="0.068" stop-color="#2da771"/>
      <stop offset="0.476" stop-color="#15cf74"/>
      <stop offset="0.801" stop-color="#06e775"/>
      <stop offset="1" stop-color="#00f076"/>
    </linearGradient>
  </defs>
  <g id="Grupo_247" data-name="Grupo 247" transform="translate(0 0)">
    <g id="Grupo_245" data-name="Grupo 245" transform="translate(0 0)">
      <path id="Trazado_2276" data-name="Trazado 2276" d="M6.184,0H141.469a6.184,6.184,0,0,1,6.184,6.184V37.107c0,3.416-.749,6.222-4.164,6.222l-137.3-.037A6.184,6.184,0,0,1,0,37.107V6.184A6.184,6.184,0,0,1,6.184,0Z" transform="translate(0 0)"/>
      <g id="Grupo_242" data-name="Grupo 242" transform="translate(0 0)">
        <g id="Grupo_241" data-name="Grupo 241">
          <path id="Trazado_2228" data-name="Trazado 2228" d="M152.837,10.879a4.62,4.62,0,0,1,4.615,4.615V48.456a4.62,4.62,0,0,1-4.615,4.615H15.494a4.62,4.62,0,0,1-4.615-4.615V15.494a4.62,4.62,0,0,1,4.615-4.615H152.837m0-.879H15.494A5.51,5.51,0,0,0,10,15.494V48.456a5.51,5.51,0,0,0,5.494,5.494H152.837a5.51,5.51,0,0,0,5.494-5.494V15.494A5.51,5.51,0,0,0,152.837,10Z" transform="translate(-10 -10)" fill="#a6a6a6"/>
        </g>
      </g>
      <path id="Trazado_2229" data-name="Trazado 2229" d="M80.811,32.217A4.673,4.673,0,1,0,85.5,36.89,4.606,4.606,0,0,0,80.811,32.217Zm0,7.5a2.839,2.839,0,1,1,2.637-2.831A2.7,2.7,0,0,1,80.811,39.721Zm-10.233-7.5a4.673,4.673,0,1,0,4.691,4.673A4.606,4.606,0,0,0,70.579,32.217Zm0,7.5a2.839,2.839,0,1,1,2.637-2.831A2.7,2.7,0,0,1,70.579,39.721ZM58.406,33.65v1.982h4.743a4.137,4.137,0,0,1-1.079,2.5,4.857,4.857,0,0,1-3.664,1.451,5.275,5.275,0,0,1,0-10.549,5.054,5.054,0,0,1,3.575,1.416l1.4-1.4a6.917,6.917,0,0,0-4.974-2,7.259,7.259,0,1,0,0,14.516,6.632,6.632,0,0,0,5.062-2.036,6.551,6.551,0,0,0,1.717-4.638,6.4,6.4,0,0,0-.107-1.238Zm49.782,1.539a4.343,4.343,0,0,0-4-2.973A4.44,4.44,0,0,0,99.78,36.89a4.573,4.573,0,0,0,4.638,4.673,4.647,4.647,0,0,0,3.894-2.071l-1.593-1.062a2.67,2.67,0,0,1-2.3,1.292,2.379,2.379,0,0,1-2.267-1.415L108.4,35.72Zm-6.373,1.558a2.564,2.564,0,0,1,2.443-2.726,1.808,1.808,0,0,1,1.735.991Zm-5.079,4.531h2.052V27.543H96.735ZM93.371,33.26H93.3a3.239,3.239,0,0,0-2.46-1.044,4.677,4.677,0,0,0,0,9.346A3.184,3.184,0,0,0,93.3,40.5h.07v.674c0,1.788-.955,2.744-2.5,2.744a2.586,2.586,0,0,1-2.355-1.665L86.734,43a4.453,4.453,0,0,0,4.142,2.761c2.407,0,4.443-1.416,4.443-4.867V32.5H93.371Zm-2.353,6.461a2.842,2.842,0,0,1,0-5.664,2.633,2.633,0,0,1,2.5,2.85A2.61,2.61,0,0,1,91.018,39.721Zm26.788-12.177h-4.912V41.279h2.049v-5.2h2.863a4.272,4.272,0,1,0,0-8.532Zm.053,6.62h-2.916V29.455h2.916a2.355,2.355,0,1,1,0,4.708Zm12.671-1.972a3.851,3.851,0,0,0-3.659,2.1l1.821.76a1.942,1.942,0,0,1,1.873-1.008,1.974,1.974,0,0,1,2.156,1.768v.141a4.535,4.535,0,0,0-2.138-.53c-1.961,0-3.959,1.078-3.959,3.092a3.174,3.174,0,0,0,3.41,3.023A2.893,2.893,0,0,0,132.65,40.2h.07v1.06H134.7V35.99C134.7,33.552,132.88,32.191,130.53,32.191Zm-.247,7.528c-.672,0-1.609-.335-1.609-1.166,0-1.06,1.166-1.467,2.173-1.467a3.657,3.657,0,0,1,1.873.459A2.485,2.485,0,0,1,130.282,39.719Zm11.627-7.228-2.35,5.955h-.07l-2.439-5.955h-2.208l3.658,8.323-2.085,4.63h2.138l5.638-12.953Zm-18.467,8.788h2.05V27.544h-2.05Z" transform="translate(-5.947 -8.317)" fill="#fff"/>
      <g id="Grupo_244" data-name="Grupo 244" transform="translate(10.958 7.846)">
        <path id="Trazado_2230" data-name="Trazado 2230" d="M20.481,17.545a2.205,2.205,0,0,0-.508,1.544v24.3a2.2,2.2,0,0,0,.508,1.544l.081.079L34.174,31.4v-.321L20.562,17.465Z" transform="translate(-19.973 -17.108)" fill="url(#linear-gradient)"/>
        <path id="Trazado_2231" data-name="Trazado 2231" d="M37.436,35.124,32.9,30.584v-.321l4.539-4.539.1.059,5.376,3.055c1.535.872,1.535,2.3,0,3.172l-5.376,3.055Z" transform="translate(-18.697 -16.293)" fill="url(#linear-gradient-2)"/>
        <path id="Trazado_2232" data-name="Trazado 2232" d="M38.77,34.642,34.129,30,20.435,43.695a1.788,1.788,0,0,0,2.284.067l16.05-9.12" transform="translate(-19.927 -15.871)" fill="url(#linear-gradient-3)"/>
        <path id="Trazado_2233" data-name="Trazado 2233" d="M38.77,26.63l-16.05-9.12a1.788,1.788,0,0,0-2.284.067L34.129,31.271Z" transform="translate(-19.927 -17.14)" fill="url(#linear-gradient-4)"/>
        <g id="Grupo_243" data-name="Grupo 243" transform="translate(0 18.669)">
          <path id="Trazado_2234" data-name="Trazado 2234" d="M38.668,34.132,22.719,43.193a1.83,1.83,0,0,1-2.2.012h0l-.082.081h0l.081.08h0a1.83,1.83,0,0,0,2.2-.012l16.05-9.12Z" transform="translate(-19.927 -34.132)" opacity="0.2" style="isolation: isolate"/>
          <path id="Trazado_2235" data-name="Trazado 2235" d="M20.481,42.457a2.2,2.2,0,0,1-.508-1.544v.162a2.2,2.2,0,0,0,.508,1.543l.082-.081Z" transform="translate(-19.973 -33.462)" opacity="0.12" style="isolation: isolate"/>
        </g>
        <path id="Trazado_2236" data-name="Trazado 2236" d="M42.507,31.427,37.029,34.54l.1.1,5.376-3.055A1.929,1.929,0,0,0,43.659,30h0A2.045,2.045,0,0,1,42.507,31.427Z" transform="translate(-18.289 -15.871)" opacity="0.12" style="isolation: isolate"/>
        <path id="Trazado_2237" data-name="Trazado 2237" d="M22.765,17.671,44.192,29.845a2.045,2.045,0,0,1,1.151,1.426h0a1.926,1.926,0,0,0-1.151-1.587L22.765,17.51c-1.536-.872-2.792-.147-2.792,1.611v.162C19.973,17.523,21.229,16.8,22.765,17.671Z" transform="translate(-19.973 -17.14)" fill="#fff" opacity="0.25" style="isolation: isolate"/>
      </g>
    </g>
    <g id="Grupo_246" data-name="Grupo 246" transform="translate(45.356 7.544)">
      <path id="Trazado_2238" data-name="Trazado 2238" d="M51.28,23.592V17H53.3a3.279,3.279,0,0,1,2.432.916,3.227,3.227,0,0,1,.911,2.38,3.229,3.229,0,0,1-.911,2.38,3.279,3.279,0,0,1-2.432.916Zm.847-.81H53.3a2.471,2.471,0,0,0,1.81-.655,2.445,2.445,0,0,0,.667-1.832A2.292,2.292,0,0,0,53.3,17.81H52.127Z" transform="translate(-51.28 -16.853)" fill="#fff" stroke="#fff" stroke-miterlimit="10" stroke-width="0.2"/>
      <path id="Trazado_2239" data-name="Trazado 2239" d="M57.239,23.592V17h.847v6.592Z" transform="translate(-50.692 -16.853)" fill="#fff" stroke="#fff" stroke-miterlimit="10" stroke-width="0.2"/>
      <path id="Trazado_2240" data-name="Trazado 2240" d="M61.283,23.753a2.456,2.456,0,0,1-1.4-.469,2.17,2.17,0,0,1-.9-1.317l.774-.312a1.772,1.772,0,0,0,.566.915,1.432,1.432,0,0,0,.962.372,1.539,1.539,0,0,0,.944-.289.927.927,0,0,0,.391-.788,1.008,1.008,0,0,0-.391-.852,4.044,4.044,0,0,0-1.237-.557,3.29,3.29,0,0,1-1.326-.714,1.489,1.489,0,0,1-.453-1.119,1.634,1.634,0,0,1,.563-1.233,2.056,2.056,0,0,1,1.464-.525,2.116,2.116,0,0,1,1.362.419,1.94,1.94,0,0,1,.682.916l-.774.322a1.138,1.138,0,0,0-.41-.58,1.441,1.441,0,0,0-1.676.005.827.827,0,0,0-.345.676.767.767,0,0,0,.318.622,3.06,3.06,0,0,0,.934.456,7.8,7.8,0,0,1,.815.3,3.688,3.688,0,0,1,.663.391,1.554,1.554,0,0,1,.507.608,1.971,1.971,0,0,1,.17.842,1.805,1.805,0,0,1-.2.857,1.62,1.62,0,0,1-.525.6,2.648,2.648,0,0,1-1.478.45Z" transform="translate(-50.52 -16.866)" fill="#fff" stroke="#fff" stroke-miterlimit="10" stroke-width="0.2"/>
      <path id="Trazado_2241" data-name="Trazado 2241" d="M65.032,23.592h-.847V17h2.247a2.083,2.083,0,0,1,1.45.557,1.917,1.917,0,0,1,0,2.808,2.083,2.083,0,0,1-1.45.557h-1.4Zm0-3.481h1.418a1.092,1.092,0,0,0,.856-.358,1.134,1.134,0,0,0,0-1.583,1.09,1.09,0,0,0-.856-.36H65.032Z" transform="translate(-50.006 -16.853)" fill="#fff" stroke="#fff" stroke-miterlimit="10" stroke-width="0.2"/>
      <path id="Trazado_2242" data-name="Trazado 2242" d="M74.507,22.754a3.423,3.423,0,0,1-4.833,0,3.562,3.562,0,0,1,0-4.889,3.413,3.413,0,0,1,4.829,0,3.551,3.551,0,0,1,0,4.885ZM70.3,22.2a2.536,2.536,0,0,0,3.582,0,2.809,2.809,0,0,0,0-3.784,2.536,2.536,0,0,0-3.582,0,2.812,2.812,0,0,0,0,3.784Z" transform="translate(-49.56 -16.866)" fill="#fff" stroke="#fff" stroke-miterlimit="10" stroke-width="0.2"/>
      <path id="Trazado_2243" data-name="Trazado 2243" d="M75.951,23.592V17h1.032l3.2,5.128h.036l-.036-1.27V17h.847v6.592h-.884L76.8,18.215h-.036l.036,1.271v4.106Z" transform="translate(-48.844 -16.853)" fill="#fff" stroke="#fff" stroke-miterlimit="10" stroke-width="0.2"/>
      <path id="Trazado_2244" data-name="Trazado 2244" d="M81.951,23.592V17H82.8v6.592Z" transform="translate(-48.251 -16.853)" fill="#fff" stroke="#fff" stroke-miterlimit="10" stroke-width="0.2"/>
      <path id="Trazado_2245" data-name="Trazado 2245" d="M84.1,23.592V17H86.48a1.932,1.932,0,0,1,1.339.511,1.656,1.656,0,0,1,.567,1.284,1.431,1.431,0,0,1-.245.828,1.53,1.53,0,0,1-.648.544V20.2a1.683,1.683,0,0,1,.8.57,1.506,1.506,0,0,1,.313.941,1.729,1.729,0,0,1-.594,1.344,2.03,2.03,0,0,1-1.4.534Zm.846-3.766H86.48a.986.986,0,0,0,.769-.318.984.984,0,0,0,.009-1.384.947.947,0,0,0-.741-.314H84.942Zm0,2.957h1.7a1.013,1.013,0,0,0,.792-.342,1.1,1.1,0,0,0,.3-.746,1.109,1.109,0,0,0-1.133-1.077H84.942Z" transform="translate(-48.04 -16.853)" fill="#fff" stroke="#fff" stroke-miterlimit="10" stroke-width="0.2"/>
      <path id="Trazado_2246" data-name="Trazado 2246" d="M89.241,23.592V17h.847v5.783h2.853v.81Z" transform="translate(-47.532 -16.853)" fill="#fff" stroke="#fff" stroke-miterlimit="10" stroke-width="0.2"/>
      <path id="Trazado_2247" data-name="Trazado 2247" d="M97.431,17.81h-3V19.9h2.706v.791H94.429v2.091h3v.81H93.582V17h3.849Z" transform="translate(-47.103 -16.853)" fill="#fff" stroke="#fff" stroke-miterlimit="10" stroke-width="0.2"/>
      <path id="Trazado_2248" data-name="Trazado 2248" d="M104.152,17.81h-3V19.9h2.707v.791h-2.707v2.091h3v.81H100.3V17h3.849Z" transform="translate(-46.439 -16.853)" fill="#fff" stroke="#fff" stroke-miterlimit="10" stroke-width="0.2"/>
      <path id="Trazado_2249" data-name="Trazado 2249" d="M105.012,23.592V17h1.031l3.2,5.128h.036l-.036-1.27V17h.848v6.592h-.884l-3.352-5.377h-.036l.036,1.271v4.106Z" transform="translate(-45.974 -16.853)" fill="#fff" stroke="#fff" stroke-miterlimit="10" stroke-width="0.2"/>
    </g>
  </g>
</svg>
