<svg xmlns="http://www.w3.org/2000/svg" width="38" height="38" viewBox="0 0 38 38">
  <g id="instagram-icono" transform="translate(-218 -164)">
    <rect id="Rectángulo_2025" data-name="Rectángulo 2025" width="38" height="38" rx="19" transform="translate(218 164)" fill="#8494a7"/>
    <g id="instagram" transform="translate(226.551 173)">
      <path id="Trazado_2331" data-name="Trazado 2331" d="M20.268,5.843a7.262,7.262,0,0,0-.462-2.411A5.091,5.091,0,0,0,16.9.524,7.281,7.281,0,0,0,14.487.062C13.423.012,13.086,0,10.387,0s-3.036.012-4.1.058A7.264,7.264,0,0,0,3.881.52,4.849,4.849,0,0,0,2.118,1.669,4.893,4.893,0,0,0,.973,3.428,7.281,7.281,0,0,0,.511,5.839C.46,6.9.449,7.241.449,9.939s.012,3.036.058,4.1a7.262,7.262,0,0,0,.462,2.411,5.09,5.09,0,0,0,2.908,2.908,7.282,7.282,0,0,0,2.411.462c1.06.047,1.4.058,4.1.058s3.036-.012,4.1-.058a7.26,7.26,0,0,0,2.411-.462A5.083,5.083,0,0,0,19.8,16.446a7.286,7.286,0,0,0,.462-2.411c.047-1.06.058-1.4.058-4.1s0-3.036-.051-4.1Zm-1.79,8.114a5.447,5.447,0,0,1-.342,1.844,3.3,3.3,0,0,1-1.887,1.887,5.467,5.467,0,0,1-1.844.342c-1.048.047-1.363.058-4.014.058s-2.97-.012-4.014-.058a5.444,5.444,0,0,1-1.844-.342,3.058,3.058,0,0,1-1.141-.742,3.09,3.09,0,0,1-.742-1.141,5.467,5.467,0,0,1-.342-1.844C2.262,12.913,2.25,12.6,2.25,9.947s.012-2.97.058-4.014A5.444,5.444,0,0,1,2.65,4.088,3.021,3.021,0,0,1,3.4,2.947a3.085,3.085,0,0,1,1.141-.741,5.47,5.47,0,0,1,1.844-.342c1.048-.047,1.363-.058,4.014-.058s2.97.012,4.014.058a5.447,5.447,0,0,1,1.844.342,3.056,3.056,0,0,1,1.141.741,3.089,3.089,0,0,1,.742,1.141,5.469,5.469,0,0,1,.342,1.844c.047,1.048.058,1.363.058,4.014s-.012,2.962-.058,4.01Zm0,0" fill="#fff"/>
      <path id="Trazado_2332" data-name="Trazado 2332" d="M130.054,124.5a5.105,5.105,0,1,0,5.105,5.105A5.107,5.107,0,0,0,130.054,124.5Zm0,8.417a3.312,3.312,0,1,1,3.312-3.312A3.312,3.312,0,0,1,130.054,132.917Zm0,0" transform="translate(-119.667 -119.666)" fill="#fff"/>
      <path id="Trazado_2333" data-name="Trazado 2333" d="M364.834,89.794a1.192,1.192,0,1,1-1.192-1.192A1.192,1.192,0,0,1,364.834,89.794Zm0,0" transform="translate(-347.947 -85.162)" fill="#fff"/>
    </g>
  </g>
</svg>
