<svg xmlns="http://www.w3.org/2000/svg" width="64" height="64" viewBox="0 0 64 64">
  <g id="like-icono" transform="translate(-270 -77)">
    <rect id="Rectángulo_2023" data-name="Rectángulo 2023" width="64" height="64" rx="32" transform="translate(270 77)" fill="#333"/>
    <g id="like" transform="translate(285 89)">
      <path id="Trazado_2328" data-name="Trazado 2328" d="M37.791,22.435a4.1,4.1,0,0,0,.959-2.74,4.209,4.209,0,0,0-.9-2.374,3.688,3.688,0,0,0-.876-4.244c-1.1-1-2.96-1.449-5.541-1.325a21.657,21.657,0,0,0-3.4.435h-.007c-.345.062-.711.138-1.083.221A12.039,12.039,0,0,1,27.812,8.4c.966-2.94.911-5.189-.179-6.694A4.387,4.387,0,0,0,24.12,0a1.733,1.733,0,0,0-1.332.607c-.766.89-.676,2.533-.58,3.292-.911,2.443-3.464,8.433-5.624,10.1a.738.738,0,0,0-.11.1,7.413,7.413,0,0,0-1.353,2.029,2.848,2.848,0,0,0-1.366-.345H9.546a2.873,2.873,0,0,0-2.871,2.871V29.86a2.873,2.873,0,0,0,2.871,2.871h4.21a2.865,2.865,0,0,0,1.656-.524l1.622.193a69.48,69.48,0,0,0,9.2.5c.821.062,1.594.1,2.312.1a15.484,15.484,0,0,0,3.209-.29,6,6,0,0,0,4.285-2.664,4.224,4.224,0,0,0,.469-2.643,4.4,4.4,0,0,0,1.566-3.582A4.662,4.662,0,0,0,37.791,22.435ZM9.546,30.868A1.009,1.009,0,0,1,8.538,29.86V18.639a1.009,1.009,0,0,1,1.008-1.008h4.21a1.009,1.009,0,0,1,1.008,1.008V29.853a1.009,1.009,0,0,1-1.008,1.008H9.546Zm26.479-9.24a.927.927,0,0,0-.124,1.125,2.871,2.871,0,0,1,.317,1.152,2.762,2.762,0,0,1-1.3,2.388.94.94,0,0,0-.317,1.063,2.437,2.437,0,0,1-.186,1.78,4.317,4.317,0,0,1-3.05,1.753,18.18,18.18,0,0,1-5.031.152h-.1a68.118,68.118,0,0,1-8.971-.49h-.007l-.7-.083a2.924,2.924,0,0,0,.062-.607V18.639a2.919,2.919,0,0,0-.131-.856,5.768,5.768,0,0,1,1.284-2.367c3.1-2.457,6.128-10.745,6.259-11.1a.874.874,0,0,0,.041-.462,4.313,4.313,0,0,1,.09-2,2.476,2.476,0,0,1,1.946.932c.7.973.676,2.712-.083,5.017-1.159,3.513-1.256,5.362-.338,6.176a1.5,1.5,0,0,0,1.5.269c.421-.1.821-.179,1.2-.242l.09-.021c2.119-.462,5.914-.745,7.232.455a1.985,1.985,0,0,1,.235,2.519.923.923,0,0,0,.166,1.2,2.614,2.614,0,0,1,.766,1.608A2.563,2.563,0,0,1,36.024,21.627Z" transform="translate(-6.675 0)" fill="#fff"/>
    </g>
  </g>
</svg>
