<svg xmlns="http://www.w3.org/2000/svg" width="141.686" height="42.586" viewBox="0 0 141.686 42.586">
  <g id="logo" transform="translate(-136.484 30.966)">
    <g id="Ropify" transform="translate(171.65 -20.105)">
      <g id="Watchfy" style="isolation: isolate">
        <g id="Grupo_258" data-name="Grupo 258" style="isolation: isolate">
          <path id="Trazado_2277" data-name="Trazado 2277" d="M197.23-17.806,192,.223h-2.637l-4.191-14.511L180.831.223,178.218.25l-5.044-18.056h2.509l3.932,15.287,4.346-15.287H186.6l4.138,15.235,3.957-15.235Z" transform="translate(-173.174 19.539)" fill="#fff"/>
          <path id="Trazado_2278" data-name="Trazado 2278" d="M200.975-10.568a6.376,6.376,0,0,1,2.418-2.548,6.637,6.637,0,0,1,3.427-.905,6.3,6.3,0,0,1,3.234.8A5.354,5.354,0,0,1,212.1-11.2v-2.586h2.38V.385H212.1V-2.252A5.536,5.536,0,0,1,210.015-.2a6.226,6.226,0,0,1-3.22.815,6.432,6.432,0,0,1-3.415-.931,6.52,6.52,0,0,1-2.4-2.614,8.123,8.123,0,0,1-.88-3.827A7.958,7.958,0,0,1,200.975-10.568Zm10.476,1.047a4.577,4.577,0,0,0-1.747-1.823,4.751,4.751,0,0,0-2.418-.634,4.768,4.768,0,0,0-2.406.62,4.508,4.508,0,0,0-1.733,1.811,5.762,5.762,0,0,0-.647,2.794,5.886,5.886,0,0,0,.647,2.832,4.567,4.567,0,0,0,1.733,1.836,4.683,4.683,0,0,0,2.406.634,4.751,4.751,0,0,0,2.418-.634,4.546,4.546,0,0,0,1.747-1.836,5.839,5.839,0,0,0,.646-2.806A5.769,5.769,0,0,0,211.452-9.521Z" transform="translate(-174.332 19.376)" fill="#fff"/>
          <path id="Trazado_2279" data-name="Trazado 2279" d="M222.1-12v8.355a1.983,1.983,0,0,0,.439,1.46,2.164,2.164,0,0,0,1.526.427H225.8V.236h-2.122a4.218,4.218,0,0,1-2.948-.9,3.885,3.885,0,0,1-.983-2.974V-12h-1.836v-1.94h1.836v-3.57H222.1v3.57h3.7V-12Z" transform="translate(-175.098 19.526)" fill="#fff"/>
          <path id="Trazado_2280" data-name="Trazado 2280" d="M229.085-10.568a6.323,6.323,0,0,1,2.444-2.548,7.03,7.03,0,0,1,3.583-.905,6.992,6.992,0,0,1,4.306,1.268,5.981,5.981,0,0,1,2.237,3.518h-2.535a3.643,3.643,0,0,0-1.409-2.044,4.356,4.356,0,0,0-2.6-.749,4.172,4.172,0,0,0-3.26,1.383,5.673,5.673,0,0,0-1.241,3.92,5.763,5.763,0,0,0,1.241,3.958,4.155,4.155,0,0,0,3.26,1.4A4.4,4.4,0,0,0,237.7-2.1a3.671,3.671,0,0,0,1.422-2.069h2.535a6.234,6.234,0,0,1-2.276,3.479A6.814,6.814,0,0,1,235.113.619a7.02,7.02,0,0,1-3.583-.905,6.3,6.3,0,0,1-2.444-2.561,8.147,8.147,0,0,1-.879-3.88A8.014,8.014,0,0,1,229.085-10.568Z" transform="translate(-175.541 19.376)" fill="#fff"/>
          <path id="Trazado_2281" data-name="Trazado 2281" d="M255.465-13.575a4.874,4.874,0,0,1,2.031,2.057,6.972,6.972,0,0,1,.737,3.337V.173H255.9V-7.845a4.562,4.562,0,0,0-1.059-3.247,3.8,3.8,0,0,0-2.9-1.125,3.88,3.88,0,0,0-2.962,1.165,4.755,4.755,0,0,0-1.1,3.389V.173h-2.354V-18.968h2.354v6.984a4.635,4.635,0,0,1,1.926-1.681,6.245,6.245,0,0,1,2.755-.6A6.094,6.094,0,0,1,255.465-13.575Z" transform="translate(-176.286 19.589)" fill="#fff"/>
          <path id="Trazado_2282" data-name="Trazado 2282" d="M268.536-12.089h-2.974V.145h-2.354V-12.089h-1.836v-1.94h1.836v-1.01a4.447,4.447,0,0,1,1.229-3.479,5.827,5.827,0,0,1,3.945-1.1v1.966a3.122,3.122,0,0,0-2.186.609,2.682,2.682,0,0,0-.634,2v1.01h2.974Z" transform="translate(-176.967 19.617)" fill="#fff"/>
          <path id="Trazado_2283" data-name="Trazado 2283" d="M283.857-13.778,275.32,7.07h-2.432L275.683.241l-5.717-14.019h2.613l4.449,11.485,4.4-11.485Z" transform="translate(-177.337 19.366)" fill="#fff"/>
        </g>
      </g>
    </g>
    <g id="Grupo_259" data-name="Grupo 259" transform="translate(137.734 -30.966)">
      <rect id="Rectángulo_2014" data-name="Rectángulo 2014" width="13.398" height="42.586" transform="translate(5.742)" fill="#fff"/>
      <g id="Grupo_258-2" data-name="Grupo 258-2" transform="translate(0 9.091)">
        <circle id="Elipse_292" data-name="Elipse 292" cx="12.202" cy="12.202" r="12.202" fill="#333" stroke="#fff" stroke-miterlimit="10" stroke-width="2.5"/>
        <line id="Línea_38" data-name="Línea 38" y2="7.539" transform="translate(12.202 4.785)" fill="none" stroke="#fff" stroke-linecap="round" stroke-width="1.5"/>
        <line id="Línea_38-2" data-name="Línea 38-2" x1="5.263" y1="3.828" transform="translate(12.202 12.441)" fill="none" stroke="#fff" stroke-linecap="round" stroke-width="1.5"/>
      </g>
    </g>
  </g>
</svg>
