<svg xmlns="http://www.w3.org/2000/svg" width="38" height="38" viewBox="0 0 38 38">
  <g id="twitter-icono" transform="translate(-161 -164)">
    <rect id="Rectángulo_2024" data-name="Rectángulo 2024" width="38" height="38" rx="19" transform="translate(161 164)" fill="#8494a7"/>
    <g id="twitter" transform="translate(169.956 127)">
      <g id="Grupo_269" data-name="Grupo 269" transform="translate(0 48)">
        <path id="Trazado_2334" data-name="Trazado 2334" d="M21.4,50.059a9.148,9.148,0,0,1-2.528.693,4.363,4.363,0,0,0,1.93-2.425,8.769,8.769,0,0,1-2.783,1.062,4.388,4.388,0,0,0-7.59,3,4.518,4.518,0,0,0,.1,1A12.42,12.42,0,0,1,1.49,48.8a4.389,4.389,0,0,0,1.348,5.865,4.333,4.333,0,0,1-1.983-.54v.048a4.408,4.408,0,0,0,3.516,4.312,4.38,4.38,0,0,1-1.15.144,3.88,3.88,0,0,1-.831-.075,4.43,4.43,0,0,0,4.1,3.057A8.817,8.817,0,0,1,1.05,63.482,8.219,8.219,0,0,1,0,63.422a12.353,12.353,0,0,0,6.732,1.969A12.4,12.4,0,0,0,19.221,52.9c0-.194-.007-.381-.016-.567A8.754,8.754,0,0,0,21.4,50.059Z" transform="translate(0 -48)" fill="#fff"/>
      </g>
    </g>
  </g>
</svg>
